<?xml version="1.0" encoding="utf-8"?>
<svg viewBox="49.26 35.377 378.651 420.089" xmlns="http://www.w3.org/2000/svg">
  <defs>
    <linearGradient id="gradient-0" gradientUnits="userSpaceOnUse" x1="119.104" y1="106.104" x2="119.104" y2="238.5" spreadMethod="pad">
      <stop offset="0" style="stop-color: rgba(255, 213, 0, 1)"/>
      <stop offset="1" style="stop-color: rgb(255, 195, 0);"/>
    </linearGradient>
    <linearGradient id="gradient-1" gradientUnits="userSpaceOnUse" x1="238.035" y1="35.49" x2="238.035" y2="167.891" spreadMethod="pad">
      <stop offset="0" style="stop-color: rgba(255, 213, 0, 1)"/>
      <stop offset="1" style="stop-color: rgb(255, 195, 0);"/>
    </linearGradient>
    <linearGradient id="gradient-2" gradientUnits="userSpaceOnUse" x1="358.071" y1="252.073" x2="358.071" y2="384.445" spreadMethod="pad">
      <stop offset="0" style="stop-color: rgba(255, 213, 0, 1)"/>
      <stop offset="1" style="stop-color: rgb(255, 195, 0);"/>
    </linearGradient>
    <linearGradient id="gradient-3" gradientUnits="userSpaceOnUse" x1="357.557" y1="108.491" x2="357.557" y2="240.884" spreadMethod="pad">
      <stop offset="0" style="stop-color: rgba(255, 213, 0, 1)"/>
      <stop offset="1" style="stop-color: rgb(255, 195, 0);"/>
    </linearGradient>
    <linearGradient id="gradient-4" gradientUnits="userSpaceOnUse" x1="239.137" y1="323.057" x2="239.137" y2="455.43" spreadMethod="pad">
      <stop offset="0" style="stop-color: rgba(255, 213, 0, 1)"/>
      <stop offset="1" style="stop-color: rgb(255, 195, 0);"/>
    </linearGradient>
    <linearGradient id="gradient-5" gradientUnits="userSpaceOnUse" x1="119.688" y1="250.085" x2="119.688" y2="382.485" spreadMethod="pad">
      <stop offset="0" style="stop-color: rgba(255, 213, 0, 1)"/>
      <stop offset="1" style="stop-color: rgb(255, 195, 0);"/>
    </linearGradient>
    <linearGradient id="gradient-6" gradientUnits="userSpaceOnUse" x1="238.619" y1="179.468" x2="238.619" y2="311.868" spreadMethod="pad">
      <stop offset="0" style="stop-color: rgba(255, 213, 0, 1)"/>
      <stop offset="1" style="stop-color: rgb(255, 195, 0);"/>
    </linearGradient>
  </defs>
  <path d="M 159.031 113.281 C 156.627 108.858 151.959 106.104 146.918 106.104 L 91.28 106.104 C 86.227 106.104 81.582 108.858 79.175 113.281 L 50.649 165.714 C 48.426 169.823 48.426 174.782 50.649 178.891 L 79.175 231.316 C 81.582 235.746 86.227 238.5 91.28 238.5 L 146.918 238.5 C 151.959 238.5 156.627 235.718 159.031 231.316 L 187.529 178.891 C 189.782 174.782 189.782 169.823 187.529 165.714 L 159.031 113.281 Z" style="fill: url(#gradient-0);"/>
  <path d="M 265.828 167.891 C 270.892 167.891 275.557 165.129 277.943 160.706 L 306.459 108.276 C 308.713 104.165 308.713 99.208 306.459 95.104 L 277.943 42.672 C 275.557 38.244 270.892 35.49 265.828 35.49 L 210.218 35.49 C 205.185 35.49 200.52 38.244 198.105 42.672 L 169.61 95.104 C 167.356 99.208 167.356 104.165 169.61 108.276 L 198.105 160.706 C 200.52 165.129 205.185 167.891 210.218 167.891 L 265.828 167.891 Z" style="fill: url(#gradient-1);"/>
  <path d="M 330.264 252.073 C 325.2 252.073 320.563 254.827 318.156 259.257 L 289.632 311.687 C 287.407 315.791 287.407 320.722 289.632 324.831 L 318.156 377.264 C 320.563 381.692 325.2 384.445 330.264 384.445 L 385.879 384.445 C 390.942 384.445 395.58 381.692 397.991 377.264 L 426.51 324.831 C 428.735 320.722 428.735 315.771 426.51 311.659 L 397.991 259.257 C 395.58 254.798 390.942 252.073 385.879 252.073 L 330.264 252.073 L 330.264 252.073 Z" style="fill: url(#gradient-2);"/>
  <path d="M 385.343 240.884 C 390.406 240.884 395.072 238.13 397.458 233.702 L 425.981 181.277 C 428.235 177.165 428.235 172.209 425.981 168.1 L 397.458 115.675 C 395.072 111.245 390.406 108.491 385.343 108.491 L 329.735 108.491 C 324.7 108.491 320.034 111.245 317.62 115.675 L 289.13 168.1 C 286.879 172.209 286.879 177.165 289.13 181.277 L 317.62 233.702 C 320.034 238.13 324.7 240.884 329.735 240.884 L 385.343 240.884 Z" style="fill: url(#gradient-3);"/>
  <path d="M 211.331 323.057 C 206.27 323.057 201.632 325.811 199.218 330.242 L 170.7 382.667 C 168.469 386.776 168.469 391.706 170.7 395.815 L 199.218 448.245 C 201.632 452.668 206.27 455.43 211.331 455.43 L 266.941 455.43 C 272.004 455.43 276.642 452.668 279.053 448.245 L 307.579 395.815 C 309.805 391.706 309.805 386.747 307.579 382.644 L 279.053 330.242 C 276.642 325.783 272.004 323.057 266.941 323.057 L 211.331 323.057 L 211.331 323.057 Z" style="fill: url(#gradient-4);"/>
  <path d="M 159.615 257.266 C 157.204 252.838 152.543 250.085 147.503 250.085 L 91.865 250.085 C 86.804 250.085 82.164 252.838 79.752 257.266 L 51.233 309.699 C 49.008 313.808 49.008 318.759 51.233 322.868 L 79.752 375.301 C 82.164 379.724 86.804 382.485 91.865 382.485 L 147.503 382.485 C 152.543 382.485 157.204 379.703 159.615 375.301 L 188.113 322.868 C 190.367 318.759 190.367 313.808 188.113 309.699 L 159.615 257.266 Z" style="fill: url(#gradient-5);"/>
  <path d="M 266.412 311.868 C 271.476 311.868 276.141 309.115 278.525 304.686 L 307.044 252.262 C 309.297 248.15 309.297 243.194 307.044 239.082 L 278.525 186.652 C 276.141 182.229 271.476 179.468 266.412 179.468 L 210.802 179.468 C 205.769 179.468 201.102 182.229 198.69 186.652 L 170.192 239.082 C 167.941 243.194 167.941 248.15 170.192 252.262 L 198.69 304.686 C 201.102 309.115 205.769 311.868 210.802 311.868 L 266.412 311.868 Z" style="fill: url(#gradient-6);"/>
  <path d="M 259.445 154.065 C 263.401 154.065 267.058 151.904 268.924 148.44 L 291.245 107.406 C 293.012 104.185 293.012 100.306 291.245 97.1 L 268.924 56.058 C 267.058 52.59 263.401 50.441 259.445 50.441 L 215.915 50.441 C 211.979 50.441 208.327 52.59 206.436 56.058 L 184.134 97.1 C 182.368 100.306 182.368 104.185 184.134 107.406 L 206.436 148.44 C 208.327 151.904 211.979 154.065 215.915 154.065 L 259.445 154.065 Z" style="fill: rgb(255, 255, 255);"/>
  <path d="M 378.786 226.936 C 382.742 226.936 386.399 224.772 388.265 221.308 L 410.587 180.274 C 412.353 177.056 412.353 173.176 410.587 169.968 L 388.265 128.929 C 386.399 125.458 382.742 123.309 378.786 123.309 L 335.256 123.309 C 331.32 123.309 327.668 125.458 325.777 128.929 L 303.476 169.968 C 301.709 173.176 301.709 177.056 303.476 180.274 L 325.777 221.308 C 327.668 224.772 331.32 226.936 335.256 226.936 L 378.786 226.936 Z" style="fill: rgb(255, 255, 255);"/>
</svg>